#!OML:ASF H:\Terrain\Patient Classification 1\Walking\liu\liu.ASF
:FULLY-SPECIFIED
:DEGREES
453
root 16.182449 26.201700 41.464500 8.005485 1.736235 3.356130
lowerback -8.625225 -2.008020 -4.364085
upperback -1.858230 -2.459355 2.024985
thorax 3.101265 -1.255344 4.353000
lowerneck -31.819199 -6.084315 -17.593651
upperneck 36.343201 -7.110270 15.793799
head 18.055799 -2.818500 7.779255
rclavicle -0.000000 0.000000
rhumerus -67.078201 15.934350 -132.315292
rradius 51.594601
rwrist -19.868999
rhand -44.533501 -50.249100
rfingers 10.687531
rthumb -4.525605 -95.186707
lclavicle -0.000000 0.000000
lhumerus -36.973499 -19.515450 134.527649
lradius 31.368752
lwrist -6.210615
lhand -16.623451 -34.896599
lfingers 10.687531
lthumb 22.411800 9.265005
rfemur -30.363300 -3.723090 25.922852
rtibia 97.194000
rfoot -15.118351 -12.250980
rtoes -26.358599
lfemur -28.282650 5.367840 -42.564152
ltibia 39.299099
lfoot -19.226999 6.780900
ltoes 0.624354
454
root 16.194450 26.211151 41.638199 7.842150 1.977330 2.935575
lowerback -8.316060 -2.342310 -4.118235
upperback -1.868070 -2.933925 2.326065
thorax 2.955420 -1.489403 4.496250
lowerneck -31.834801 -5.734365 -17.526899
upperneck 36.251701 -6.668130 15.948900
head 17.963699 -2.593380 7.899600
rclavicle 0.000000 0.000000
rhumerus -67.232246 16.235249 -132.099304
rradius 51.993599
rwrist -20.401051
rhand -46.523102 -46.556999
rfingers 10.687531
rthumb -6.447060 -91.461601
lclavicle 0.000000 0.000000
lhumerus -35.759251 -19.921650 134.234406
lradius 31.709249
lwrist -6.154065
lhand -17.225550 -35.269051
lfingers 10.687531
lthumb 21.831749 8.935080
rfemur -31.843649 -3.303060 26.504852
rtibia 96.541351
rfoot -16.500900 -12.573719
rtoes -25.696650
lfemur -27.483450 5.286600 -42.044250
ltibia 39.240601
lfoot -19.568851 6.622410
ltoes 1.851870
455
root 16.207651 26.196449 41.803951 7.949550 2.094075 2.690850
lowerback -8.207145 -2.556315 -3.860970
upperback -2.036580 -3.239160 2.462250
thorax 2.739255 -1.635435 4.474590
lowerneck -31.628548 -5.253465 -16.777500
upperneck 36.524551 -6.056280 15.172350
head 17.905949 -2.352990 7.576515
rclavicle -0.000000 -0.000000
rhumerus -67.831352 16.217400 -131.920654
rradius 52.779449
rwrist -20.809950
rhand -47.301300 -44.449650
rfingers 10.687531
rthumb -7.198455 -89.338051
lclavicle -0.000000 -0.000000
lhumerus -34.718700 -20.725800 133.964844
lradius 32.076149
lwrist -5.831385
lhand -17.919151 -35.612850
lfingers 10.687531
lthumb 21.163500 8.638635
rfemur -33.750000 -2.795040 26.864101
rtibia 95.891548
rfoot -17.952000 -12.915735
rtoes -25.878151
lfemur -27.028950 5.382180 -41.820751
ltibia 39.697948
lfoot -20.432400 6.559830
ltoes 1.024202
456
root 16.217400 26.163300 41.970001 7.698165 2.274645 2.701785
lowerback -7.889055 -2.805375 -3.957015
upperback -1.920390 -3.574305 2.533335
thorax 2.712285 -1.804725 4.584645
lowerneck -33.179100 -5.611845 -16.319700
upperneck 37.695450 -6.526260 14.767290
head 18.715651 -2.546910 7.316100
rclavicle -0.000000 0.000000
rhumerus -67.992447 16.532400 -132.067642
rradius 53.305054
rwrist -21.756451
rhand -47.563801 -44.959351
rfingers 10.687531
rthumb -7.451850 -89.841904
lclavicle -0.000000 0.000000
lhumerus -33.391651 -22.068899 133.638458
lradius 32.518051
lwrist -4.890780
lhand -18.300449 -35.878201
lfingers 10.687531
lthumb 20.796001 8.398726
rfemur -35.140949 -2.355255 26.919899
rtibia 95.212952
rfoot -19.734150 -12.959670
rtoes -26.930550
lfemur -26.105549 5.475810 -41.831848
ltibia 39.994350
lfoot -21.455101 6.592230
ltoes 0.991857
457
root 16.224899 26.123550 42.130051 7.187429 2.559060 2.627955
lowerback -7.260060 -3.090120 -4.040460
upperback -1.742565 -3.966690 2.688510
thorax 2.584080 -2.002320 4.781295
lowerneck -32.178150 -5.109780 -16.594051
upperneck 36.732151 -6.005925 15.632401
head 18.094799 -2.244270 7.747185
rclavicle -0.000000 -0.000000
rhumerus -68.042252 16.778700 -131.978088
rradius 53.914047
rwrist -22.960651
rhand -46.966202 -45.855751
rfingers 10.687531
rthumb -6.874905 -90.751350
lclavicle -0.000000 -0.000000
lhumerus -32.218052 -23.778299 133.436401
lradius 33.135750
lwrist -3.360270
lhand -19.016701 -36.095100
lfingers 10.687531
lthumb 20.105700 8.228115
rfemur -36.247650 -2.047725 27.055349
rtibia 94.547096
rfoot -21.554100 -12.828886
rtoes -26.404350
lfemur -24.853951 5.396655 -41.677052
ltibia 39.891602
lfoot -22.058701 6.710279
ltoes 2.290350
458
root 16.235851 26.096401 42.296097 7.014885 2.745570 2.906745
lowerback -7.021920 -3.311670 -4.317945
upperback -1.733010 -4.254195 2.693550
thorax 2.496360 -2.146065 4.931265
lowerneck -32.477249 -4.611285 -15.521550
upperneck 37.411049 -5.350440 14.499015
head 18.284250 -1.991700 7.255800
rclavicle 0.000000 0.000000
rhumerus -68.371201 16.280849 -131.293640
rradius 54.815399
rwrist -23.189699
rhand -45.143250 -46.976547
rfingers 10.687531
rthumb -5.114550 -91.905296
lclavicle 0.000000 0.000000
lhumerus -31.388252 -24.707550 133.218155
lradius 33.867752
lwrist -2.282625
lhand -19.274250 -35.742451
lfingers 10.687531
lthumb 19.857300 8.596965
rfemur -37.727848 -1.910805 26.750399
rtibia 93.730652
rfoot -22.636051 -12.850065
rtoes -23.314949
lfemur -23.914650 5.386845 -41.951401
ltibia 39.740402
lfoot -22.366350 6.693075
ltoes 3.221070
459
root 16.257000 26.075100 42.494850 6.624540 3.052845 3.837855
lowerback -7.548390 -3.548745 -5.008380
upperback -0.998328 -4.510140 2.297205
thorax 3.582360 -2.306280 4.853145
lowerneck -33.033451 -4.835880 -16.080601
upperneck 37.042652 -5.734305 15.657751
head 18.338551 -2.052495 7.735050
rclavicle 0.000000 0.000000
rhumerus -67.731895 15.403801 -130.761307
rradius 55.210350
rwrist -22.820702
rhand -45.054150 -45.101250
rfingers 10.687531
rthumb -5.028450 -90.031349
lclavicle 0.000000 0.000000
lhumerus -29.473949 -25.130699 132.380707
lradius 34.532249
lwrist -1.885005
lhand -19.053751 -35.288250
lfingers 10.687531
lthumb 20.070000 9.037365
rfemur -38.675552 -2.166510 25.549650
rtibia 92.681847
rfoot -23.188351 -12.534330
rtoes -23.117401
lfemur -22.617149 5.474385 -42.976799
ltibia 39.786148
lfoot -23.127449 6.235785
ltoes 4.186140
460
root 16.265251 26.079151 42.679352 6.533236 3.742605 3.903225
lowerback -10.015995 -3.788475 -4.955235
upperback 1.108441 -4.742730 2.100105
thorax 7.161300 -2.508285 4.447890
lowerneck -34.622551 -5.203170 -15.878550
upperneck 35.794502 -6.125025 15.823349
head 18.218849 -2.137890 7.656600
rclavicle 0.000000 0.000000
rhumerus -64.519348 14.800890 -130.433395
rradius 55.027649
rwrist -23.646151
rhand -46.132202 -42.961048
rfingers 10.687531
rthumb -6.069600 -87.873001
lclavicle 0.000000 0.000000
lhumerus -24.756599 -26.645250 130.803741
lradius 34.960651
lwrist -0.776485
lhand -19.242149 -35.326801
lfingers 10.687531
lthumb 19.888350 9.010695
rfemur -39.816452 -2.264670 25.433250
rtibia 91.302597
rfoot -24.097801 -12.442861
rtoes -26.692200
lfemur -21.686100 5.104215 -42.990902
ltibia 39.660751
lfoot -23.801849 5.805915
ltoes 4.855410
